<?xml version="1.0" encoding="UTF-8"?>
<svg width="96px" height="58px" viewBox="0 0 96 58" version="1.1" xmlns="http://www.w3.org/2000/svg" xmlns:xlink="http://www.w3.org/1999/xlink">
    <title>van</title>
    <g id="Page-1" stroke="none" stroke-width="1" fill="none" fill-rule="evenodd">
        <g id="Welcome" transform="translate(-54.000000, -249.000000)">
            <g id="van" transform="translate(54.000000, 249.465649)">
                <polygon id="Rectangle" fill="#84B1FF" points="71 15.5343506 88 15.5343506 92 33.5343506 71 33.5343506"></polygon>
                <path d="M85,2.03435059 C87.6233526,2.03435059 89.9983526,3.09767431 91.7175144,4.81683617 C93.4366763,6.53599803 94.5,8.91099803 94.5,11.5343506 L94.5,11.5343506 L94.5,15.0343506 L70.5,15.0343506 L70.5,34.4775534 L90,34.4775534 C91.2426407,34.4775534 92.3676407,34.981233 93.1819805,35.7955729 C93.9963203,36.6099127 94.5,37.7349127 94.5,38.9775534 L94.5,38.9775534 L94.5,55.0343506 L21,55.0343506 C15.6152237,55.0343506 10.7402237,52.8517387 7.21141777,49.3229328 C3.68261184,45.7941269 1.5,40.9191269 1.5,35.5343506 L1.5,35.5343506 L1.5,7.53435059 C1.5,6.01556753 2.11560847,4.64056753 3.1109127,3.6452633 C4.10621694,2.64995906 5.48121694,2.03435059 7,2.03435059 L7,2.03435059 Z" id="Rectangle" stroke="#FFFFFF" stroke-width="3" fill="#007CFF"></path>
                <rect id="Rectangle" stroke="#FFFFFF" stroke-width="2" fill="#84B1FF" x="13" y="15.5343506" width="18" height="13" rx="2"></rect>
                <rect id="Rectangle-Copy" stroke="#FFFFFF" stroke-width="2" fill="#015FFF" x="44" y="15.5343506" width="16" height="33"></rect>
                <rect id="Rectangle" fill="#FFFFFF" x="46" y="32.5343506" width="4" height="2"></rect>
            </g>
        </g>
    </g>
</svg>