<?xml version="1.0" encoding="UTF-8"?>
<svg width="103px" height="62px" viewBox="0 0 103 62" version="1.1" xmlns="http://www.w3.org/2000/svg" xmlns:xlink="http://www.w3.org/1999/xlink">
    <title>pick-me-up</title>
    <g id="Page-1" stroke="none" stroke-width="1" fill="none" fill-rule="evenodd">
        <g id="Welcome" transform="translate(-104.000000, -172.000000)" fill="#FFFFFF" fill-rule="nonzero">
            <path d="M132.979355,193.894955 C133.576897,194.175715 133.761505,194.778202 133.761505,195.058046 C133.761505,195.33789 133.590889,195.523905 133.459373,195.620354 C126.849068,200.468109 120.915917,210.568454 115.659921,225.921387 L117.329237,225.921973 C118.170032,225.921973 118.866204,225.825531 119.268553,226.475139 L119.338747,226.601585 C119.684385,227.300484 119.435188,228.138551 118.785581,228.5409 L118.659134,228.611094 L110.031981,232.877627 C109.288906,233.245112 108.39909,232.938515 108.031112,232.215497 L107.971728,232.083635 L104.604695,223.550568 C104.300625,222.779963 104.678826,221.908766 105.449432,221.604695 C106.174707,221.318512 106.640676,221.765874 107.335894,222.317575 C107.572988,222.505725 108.095387,222.912036 108.903089,223.536507 C112.508031,211.761428 120.684756,202.218063 132.204041,194.008834 C132.336875,193.914169 132.712226,193.769442 132.979355,193.894955 Z M190.51,176.24 C190.89,175.28 192.15,174.96 193.01,175.58 C193.27,175.8 193.49,175.84 193.83,175.76 C195.05,175.46 196.29,175.46 197.49,175.84 C199.97,176.58 201.45,179.36 200.69,181.82 C199.79,184.76 196.69,185.24 194.19,185.24 L194.19,185.24 L193.93,185.24 L193.93,185.78 C193.93,186.52 193.95,187.26 193.93,187.98 C193.89,188.98 193.41,189.52 192.51,189.7 C191.63,189.86 190.75,189.24 190.61,188.36 C190.59,188.22 190.59,188.1 190.59,187.98 C190.51,184.38 190.43,180.78 190.37,177.18 C190.35,176.86 190.39,176.52 190.51,176.24 Z M126.47,176.32 C127.03,176.26 127.59,176.32 128.11,176.54 C128.93,176.88 129.31,177.62 129.13,178.4 C128.93,179.14 128.09,179.7 127.27,179.52 C126.49,179.36 125.91,179.66 125.37,180.2 C125.01,180.58 124.71,181.02 124.55,181.54 C124.31,182.38 124.45,183.14 125.11,183.74 C125.75,184.32 126.55,184.42 127.37,184.14 C127.81,184.02 128.21,183.9 128.69,184.04 C129.25,184.22 129.65,184.58 129.79,185.18 C129.95,185.8 129.73,186.32 129.25,186.7 C129.05,186.88 128.79,187.04 128.53,187.14 C125.91,188.04 121.99,186.98 121.21,183.24 C120.51,179.92 123.27,176.64 126.47,176.32 Z M204.19,184.36 C205.05,184.4 205.77,185.06 205.75,185.88 C205.73,186.72 205.01,187.36 204.11,187.36 C203.23,187.36 202.49,186.7 202.53,185.86 C202.53,185 203.25,184.34 204.19,184.36 Z M168.09,176.12 C168.81,176.14 169.49,176.24 170.15,176.48 C172.63,177.46 173.17,180.38 171.23,182.18 C170.33,183 169.27,183.44 168.03,183.38 L168.03,183.38 L167.27,183.38 C167.73,183.8 168.15,183.94 168.63,183.9 C169.01,183.88 169.37,183.8 169.75,183.76 C170.75,183.66 171.77,184.36 171.63,185.5 C171.53,186.2 171.07,186.62 170.43,186.82 C170.07,186.92 169.69,186.98 169.31,187.02 C167.31,187.26 165.63,186.62 164.29,185.12 C163.81,184.56 163.51,183.9 163.33,183.2 C163.05,181.96 163.05,180.72 163.41,179.52 C164.01,177.52 165.99,176.1 168.09,176.12 Z M106.69,174.1 C115.11,171.6 118.27,182.74 110.23,183.5 C109.71,183.56 109.21,183.6 108.65,183.66 C108.65,184.22 108.67,184.74 108.65,185.28 C108.65,185.5 108.65,185.74 108.59,185.96 C108.35,186.72 107.63,187.14 106.79,187.04 C105.99,186.94 105.41,186.34 105.37,185.5 C105.31,184.24 105.29,182.98 105.21,181.72 C105.09,179.94 104.95,178.14 104.81,176.36 L104.81,176.36 L104.79,176.1 C104.71,174.96 105.61,174.42 106.69,174.1 Z M181.628776,176.856067 L181.79,176.86 C182.55,176.92 183.13,177.48 183.21,178.2 C183.25,178.46 183.23,178.74 183.23,179 C183.25,179.98 183.27,180.94 183.33,181.9 C183.39,183.92 184.99,183.96 185.33,182.04 C185.49,180.96 185.31,179.86 185.37,178.8 C185.45,177.68 186.55,176.98 187.59,177.3 C188.27,177.52 188.69,178.04 188.71,178.78 C188.716667,178.953333 188.718889,179.126667 188.718889,179.3 L188.718889,179.3 L188.71,180.34 C188.79,181.76 188.67,183.14 188.05,184.44 C186.19,188.38 180.91,186.96 180.11,183.06 C179.79,181.52 179.77,179.96 179.93,178.4 C180.05,177.4 180.81,176.8 181.79,176.86 Z M150.43,177.16 C151.83,176.42 153.71,176.78 154.65,177.72 C154.79,177.88 154.91,178.02 155.09,178.22 C155.71,177.68 156.39,177.32 157.13,177.1 C158.23,176.78 159.19,177.04 160.01,177.82 C161.07,178.86 161.67,180.12 161.73,181.54 C161.79,182.76 161.71,183.98 161.63,185.18 C161.57,186.08 160.77,186.66 159.87,186.64 C158.97,186.58 158.29,185.88 158.31,184.94 C158.33,184.02 158.41,183.08 158.41,182.14 C158.25,179.6 156.67,180.26 156.43,182.44 C156.35,183.18 156.39,183.94 156.43,184.68 C156.45,184.9 156.45,185.12 156.41,185.34 C156.29,186.14 155.67,186.7 154.89,186.74 C153.99,186.78 153.29,186.3 153.11,185.46 C153.03,185.12 153.01,184.72 153.03,184.34 C153.03,183.84 153.03,183.34 152.97,182.84 C152.65,179.98 151.07,179.72 151.21,182.9 C151.23,183.38 151.23,183.86 151.25,184.36 L151.25,184.36 L151.33,184.9 C151.41,185.84 150.91,186.52 150.01,186.7 C149.21,186.86 148.33,186.4 148.09,185.58 C147.97,185.26 147.95,184.9 147.91,184.52 C147.81,183.42 147.71,182.32 147.85,181.2 C147.99,180.18 148.33,179.24 148.97,178.42 C149.37,177.9 149.83,177.48 150.43,177.16 Z M132.51,172.92 C133.43,172.78 134.25,173.32 134.45,174.24 C134.51,174.72 134.51,175.2 134.53,175.7 C134.57,176.64 134.59,177.62 134.61,178.56 C134.61,178.74 134.63,178.9 134.67,179.22 C135.39,178.74 136.01,178.3 136.65,177.88 C136.97,177.66 137.29,177.48 137.67,177.32 C138.15,177.14 138.63,177.26 139.05,177.54 C139.91,178.08 140.03,179.18 139.29,179.9 C138.93,180.22 138.53,180.5 138.15,180.8 C138.01,180.9 137.87,181.02 137.67,181.16 C138.29,181.56 138.83,181.94 139.41,182.32 C139.57,182.44 139.75,182.52 139.89,182.66 C140.41,183.06 140.57,183.62 140.41,184.24 C140.25,184.82 139.67,185.28 139.07,185.34 C138.53,185.4 138.07,185.28 137.61,185 C137.03,184.62 136.45,184.2 135.85,183.84 C135.57,183.64 135.23,183.44 134.81,183.2 C134.85,183.82 134.89,184.32 134.91,184.82 C134.95,185.72 134.45,186.38 133.55,186.56 C132.65,186.72 131.75,186.14 131.61,185.22 C131.53,184.84 131.51,184.46 131.51,184.08 C131.37,180.96 131.27,177.82 131.13,174.7 C131.09,173.58 131.87,173.02 132.51,172.92 Z M117.99,178.66 C118.85,178.68 119.51,179.28 119.59,180.18 C119.63,180.58 119.61,181 119.61,181.42 C119.63,181.8 119.61,182.2 119.61,182.6 C119.61,183.34 119.63,184.1 119.61,184.86 C119.59,185.74 119.09,186.32 118.25,186.48 C117.39,186.64 116.53,186.08 116.33,185.24 C116.29,184.98 116.25,184.7 116.25,184.42 L116.25,184.42 L116.25,180.6 C116.25,180.4 116.25,180.2 116.29,180.02 C116.47,179.18 117.15,178.64 117.99,178.66 Z M204.49,172.26 C205.47,172.3 206.11,173.06 206.07,174.06 C205.99,176.86 205.97,179.58 206.05,182.34 C206.07,183.06 205.63,183.7 204.95,183.92 C204.13,184.16 203.29,183.84 202.93,183.1 C202.79,182.82 202.71,182.46 202.71,182.16 C202.69,179.7 202.69,177.28 202.71,174.82 C202.71,174.5 202.75,174.14 202.77,173.78 C202.83,172.78 203.69,172.24 204.49,172.26 Z M195.91,178.74 C195.63,178.74 195.35,178.7 195.09,178.76 C194.73,178.84 194.33,178.94 193.97,179.08 C193.87,179.14 193.75,179.34 193.75,179.46 C193.73,180.24 193.77,181.04 193.77,181.82 C194.97,182.26 196.05,182.3 197.07,181.46 C197.45,181.1 197.59,180.68 197.51,180.2 C197.37,179.48 196.83,178.76 195.91,178.74 Z M110.51,180.26 C113.67,179.32 110.37,175.12 108.27,176.96 C108.33,178.02 108.39,179.04 108.45,180.08 C108.47,180.46 108.57,180.56 108.95,180.52 C109.47,180.46 110.01,180.4 110.51,180.26 Z M168.81,179.4 C168.07,179.04 167.21,179.34 166.75,180.16 C167.29,180.18 167.77,180.22 168.23,180.2 C168.47,180.2 168.71,180.06 168.89,179.92 C169.11,179.74 169.07,179.52 168.81,179.4 Z M118.11,175 C118.99,174.98 119.77,175.7 119.79,176.52 C119.79,177.4 119.07,178.08 118.13,178.1 C117.19,178.1 116.47,177.44 116.45,176.56 C116.45,175.7 117.17,175 118.11,175 Z" id="pick-me-up"></path>
        </g>
    </g>
</svg>