<?xml version="1.0" encoding="UTF-8"?>
<svg width="20px" height="20px" viewBox="0 0 20 20" version="1.1" xmlns="http://www.w3.org/2000/svg" xmlns:xlink="http://www.w3.org/1999/xlink">
    <title>Path</title>
    <g id="Page-1" stroke="none" stroke-width="1" fill="none" fill-rule="evenodd">
        <g id="Button-Variations" transform="translate(-182.000000, -44.000000)" fill="#03500E">
            <path d="M192,64 C186.477153,64 182,59.5228475 182,54 C182,48.4771525 186.477153,44 192,44 C196.932113,44 201.030267,47.5706058 201.850532,52.267888 C201.858646,52.3143528 201.867199,52.3756937 201.876192,52.4519107 C201.965845,53.2119514 201.422408,53.9007797 200.66237,53.9904543 C200.60848,53.9968126 200.554264,54 200.5,54 L200.376769,54 C199.64531,54.0000214 199.018928,53.4759898 198.889797,52.7560196 C198.889797,52.7560196 198.889797,52.7560196 198.889797,52.7560196 C198.302844,49.4834733 195.441445,47 192,47 C188.134007,47 185,50.1340068 185,54 C185,57.8659932 188.134007,61 192,61 C195.085291,60.7122595 198.073979,63.7078528 192,64 Z" id="Path"></path>
        </g>
    </g>
</svg>