<?xml version="1.0" encoding="UTF-8"?>
<svg width="56px" height="33px" viewBox="0 0 56 33" version="1.1" xmlns="http://www.w3.org/2000/svg" xmlns:xlink="http://www.w3.org/1999/xlink">
    <title>logo</title>
    <defs>
        <linearGradient x1="50%" y1="0%" x2="50%" y2="100%" id="linearGradient-1">
            <stop stop-color="#FFFFFF" offset="0%"></stop>
            <stop stop-color="#FFFFFF" offset="100%"></stop>
        </linearGradient>
    </defs>
    <g id="Page-1" stroke="none" stroke-width="1" fill="none" fill-rule="evenodd">
        <g id="Welcome" transform="translate(-24.000000, -78.000000)" fill="url(#linearGradient-1)" fill-rule="nonzero">
            <path d="M47.98125,104.197915 C49.2820313,104.197915 50.2371094,104.789712 50.4421875,105.498696 C50.465625,105.586587 50.4832031,105.668618 50.4832031,105.750649 C50.4832031,106.096353 50.2664063,106.336587 49.8269531,106.336587 C49.6042969,106.336587 49.3582031,106.254556 49.2058594,106.072915 C48.9070313,105.692056 48.5671875,105.399087 47.9519531,105.399087 C47.371875,105.399087 46.9675781,105.674478 46.9675781,106.078774 C46.9675781,106.379556 47.1743652,106.58679 47.6917433,106.723045 L47.840625,106.758462 L48.8777344,106.981118 C50.2136719,107.262368 50.7644531,107.754556 50.7644531,108.692056 C50.7644531,109.940103 49.6453125,110.748696 47.9871094,110.748696 C46.5457031,110.748696 45.5847656,110.233071 45.2859375,109.49479 C45.2449219,109.383462 45.2214844,109.272134 45.2214844,109.178384 C45.2214844,108.785806 45.5144531,108.522134 45.9128906,108.522134 C46.1882813,108.522134 46.4226563,108.645181 46.6570313,108.908853 C46.9910156,109.348306 47.3777344,109.547524 48.028125,109.547524 C48.6492188,109.547524 49.0535156,109.289712 49.0535156,108.873696 C49.0535156,108.562173 48.871346,108.383584 48.3670973,108.252179 L48.2214844,108.217446 L47.1667969,107.99479 C45.9363281,107.731118 45.3152344,107.104165 45.3152344,106.172524 C45.3152344,104.971353 46.3523438,104.197915 47.98125,104.197915 Z M71.4191406,104.197915 C73.2003906,104.197915 74.3957031,105.416665 74.3957031,107.121743 C74.3957031,107.556802 74.169222,107.819538 73.7659051,107.860306 L73.6515625,107.865884 L70.065625,107.865884 L70.065625,107.942056 C70.065625,108.873696 70.628125,109.483071 71.4953125,109.483071 C72.1222656,109.483071 72.5324219,109.272134 72.9953125,108.727212 C73.1769531,108.539712 73.3292969,108.475259 73.5519531,108.475259 C73.9210937,108.475259 74.2199219,108.709634 74.2199219,109.102212 C74.2199219,109.236978 74.1789062,109.377603 74.1027344,109.518228 C73.6867187,110.291665 72.7140625,110.748696 71.5011719,110.748696 C69.5382812,110.748696 68.3839844,109.535806 68.3839844,107.502603 C68.3839844,105.481118 69.5617187,104.197915 71.4191406,104.197915 Z M29.2851562,104.203774 C29.7597656,104.203774 30.1171875,104.531899 30.1171875,104.965493 C30.1171875,105.084145 30.0941162,105.212686 30.0603333,105.331338 L30.0234375,105.445962 L28.3886719,109.863931 C28.171875,110.467446 27.8144531,110.736978 27.1933594,110.736978 C26.5875901,110.736978 26.2414363,110.51231 26.0120326,109.998456 L25.9570312,109.863931 L24.3222656,105.481118 C24.2695312,105.328774 24.2285156,105.147134 24.2285156,104.971353 C24.2285156,104.508462 24.5976562,104.203774 25.0839844,104.203774 C25.4583984,104.203774 25.7189063,104.384126 25.8612363,104.757644 L25.9042969,104.889321 L27.1757812,109.102212 L27.2109375,109.102212 L28.4824219,104.871743 C28.5996094,104.420571 28.8867188,104.203774 29.2851562,104.203774 Z M33.9507812,104.197915 C35.4949707,104.197915 36.5225586,104.962055 36.60551,106.139655 L36.6109375,106.295571 L36.6109375,109.875649 C36.6109375,110.444009 36.2652344,110.736978 35.7789062,110.736978 C35.3545898,110.736978 35.0484375,110.520343 34.9732795,110.096102 L34.9585937,109.975259 L34.9585937,109.652993 L34.9234375,109.652993 C34.571875,110.320962 33.7867187,110.71354 33.0015625,110.71354 C31.80625,110.71354 30.8980469,109.940103 30.8980469,108.809243 C30.8980469,107.716342 31.7021879,107.063039 33.1463787,106.92625 L33.3472656,106.910806 L34.9292969,106.817056 L34.9292969,106.40104 C34.9292969,105.815103 34.5191406,105.475259 33.8746094,105.475259 C33.353125,105.475259 33.0367187,105.645181 32.6558594,106.137368 C32.4683594,106.348306 32.2515625,106.453774 31.9761719,106.453774 C31.5601562,106.453774 31.2613281,106.184243 31.2613281,105.797524 C31.2613281,105.662759 31.290625,105.539712 31.3492187,105.410806 C31.6421875,104.660806 32.65,104.197915 33.9507812,104.197915 Z M38.9386719,104.203774 C39.4146334,104.203774 39.7408168,104.48336 39.7881826,104.950361 L39.7941406,105.070962 L39.7941406,105.422524 L39.8292969,105.422524 C40.1632812,104.643228 40.7960937,104.215493 41.7628906,104.215493 C43.0993164,104.215493 43.8760905,105.022683 43.9385015,106.384368 L43.9425781,106.565103 L43.9425781,109.846353 C43.9425781,110.43229 43.5851562,110.736978 43.0871094,110.736978 C42.6219651,110.736978 42.2866286,110.477362 42.2377907,109.976566 L42.2316406,109.846353 L42.2316406,106.922524 C42.2316406,106.102212 41.8449219,105.633462 41.0773437,105.633462 C40.3577393,105.633462 39.8853271,106.127847 39.8290866,106.860733 L39.8234375,107.010415 L39.8234375,109.846353 C39.8234375,110.43229 39.471875,110.736978 38.9679687,110.736978 C38.5082332,110.736978 38.1683201,110.477362 38.1187461,109.976566 L38.1125,109.846353 L38.1125,105.065103 C38.1125,104.531899 38.4230469,104.203774 38.9386719,104.203774 Z M56.9535156,104.203774 C57.4186599,104.203774 57.7539964,104.468382 57.8028343,104.969947 L57.8089844,105.100259 L57.8089844,109.86979 C57.8089844,110.438149 57.475,110.736978 56.9828125,110.736978 C56.5284856,110.736978 56.2089589,110.482355 56.1624893,109.996152 L56.1566406,109.86979 L56.1566406,109.483071 L56.1214844,109.483071 C55.8109375,110.274087 55.1898438,110.731118 54.240625,110.731118 C52.9378906,110.731118 52.054895,109.918547 51.9835737,108.561571 L51.9789063,108.381509 L51.9789063,105.100259 C51.9789063,104.514321 52.3363281,104.203774 52.834375,104.203774 C53.2995192,104.203774 53.6348558,104.468382 53.6836937,104.969947 L53.6898438,105.100259 L53.6898438,108.024087 C53.6898438,108.861978 54.1058594,109.30729 54.8617188,109.30729 C55.5758301,109.30729 56.0375992,108.828355 56.0925308,108.082915 L56.0980469,107.930337 L56.0980469,105.100259 C56.0980469,104.514321 56.4554688,104.203774 56.9535156,104.203774 Z M60.1484375,104.203774 C60.5919471,104.203774 60.905649,104.473375 60.9512866,104.943448 L60.9570312,105.065103 L60.9570312,105.475259 L60.9921875,105.475259 C61.15625,104.695962 61.671875,104.233071 62.2988281,104.233071 C62.5273438,104.233071 62.7089844,104.285806 62.8320312,104.391274 C62.9960938,104.520181 63.078125,104.731118 63.078125,105.024087 C63.078125,105.293618 62.9960938,105.498696 62.8320312,105.639321 C62.6953125,105.756509 62.5016276,105.828937 62.2475857,105.853216 L62.0878906,105.861978 C61.3572998,105.872964 61.0695953,106.259889 61.0364861,106.921364 L61.0332031,107.05729 L61.0332031,109.846353 C61.0332031,110.414712 60.6992188,110.736978 60.1777344,110.736978 C59.7017728,110.736978 59.3755894,110.462384 59.3282237,109.973109 L59.3222656,109.846353 L59.3222656,105.065103 C59.3222656,104.520181 59.65625,104.203774 60.1484375,104.203774 Z M66.3667969,102.082681 C67.275,102.082681 67.6558594,102.36979 67.6558594,102.774087 C67.6558594,103.014321 67.5386719,103.154946 67.3101563,103.225259 C67.2476563,103.240884 67.1799479,103.253905 67.103559,103.262585 L66.9820313,103.272134 C66.4986328,103.288247 66.2811035,103.466836 66.2482056,103.853032 L66.24375,103.96354 L66.24375,104.361978 L66.9644531,104.361978 C67.321875,104.361978 67.5914063,104.590493 67.5914063,104.988931 C67.5914063,105.356473 67.3686532,105.578742 67.0596162,105.616117 L66.9644531,105.621743 L66.2847656,105.621743 L66.2847656,109.846353 C66.2847656,110.438149 65.9332031,110.736978 65.4292969,110.736978 C64.958744,110.736978 64.627984,110.482355 64.5798822,109.977718 L64.5738281,109.846353 L64.5738281,105.621743 L64.2457031,105.621743 C63.8882813,105.621743 63.61875,105.393228 63.61875,104.988931 C63.61875,104.626715 63.8415031,104.40493 64.15054,104.367599 L64.2457031,104.361978 L64.5738281,104.361978 L64.5738281,103.887368 C64.5738281,102.645181 65.1832031,102.094399 66.3667969,102.082681 Z M76.5007812,104.203774 C76.9442909,104.203774 77.2579928,104.473375 77.3036303,104.943448 L77.309375,105.065103 L77.309375,105.475259 L77.3445312,105.475259 C77.5085937,104.695962 78.0242187,104.233071 78.6511719,104.233071 C78.8796875,104.233071 79.0613281,104.285806 79.184375,104.391274 C79.3484375,104.520181 79.4304687,104.731118 79.4304687,105.024087 C79.4304687,105.293618 79.3484375,105.498696 79.184375,105.639321 C79.0476562,105.756509 78.8539714,105.828937 78.5999295,105.853216 L78.4402344,105.861978 C77.7096436,105.872964 77.4219391,106.259889 77.3888299,106.921364 L77.3855469,107.05729 L77.3855469,109.846353 C77.3855469,110.414712 77.0515625,110.736978 76.5300781,110.736978 C76.0541166,110.736978 75.7279332,110.462384 75.6805674,109.973109 L75.6746094,109.846353 L75.6746094,105.065103 C75.6746094,104.520181 76.0085937,104.203774 76.5007812,104.203774 Z M34.9292969,107.854165 L33.6050781,107.936196 C32.9664062,107.983071 32.603125,108.270181 32.603125,108.715493 C32.603125,109.184243 32.9898437,109.477212 33.5640625,109.477212 C34.2671875,109.477212 34.8518661,109.049775 34.9222044,108.4363 L34.9292969,108.311196 L34.9292969,107.854165 Z M71.4367187,105.46354 C70.7335937,105.46354 70.2107132,105.947625 70.0998199,106.669568 L70.0832031,106.817056 L72.7492187,106.817056 C72.7140625,105.996743 72.1867187,105.46354 71.4367187,105.46354 Z M78.7108016,86.8018735 C79.474018,87.2584062 79.8551141,88.1043592 79.983382,88.7920622 L80,88.8886079 C79.8905425,89.5919686 79.5103617,90.4976319 78.7108016,90.9759043 C61.2348215,100.640601 43.2908475,102.31141 24.6608418,96.1601563 C24.2120143,96.0119689 23.9240488,95.3157901 24.0176521,94.6052035 C24.048263,94.3728214 24.118055,94.1579029 24.219616,93.9832719 L26.5976555,89.8940979 C26.959137,89.2725099 26.9591186,88.5047166 26.5976073,87.883146 L24.219616,83.7945059 C24.118055,83.6198749 24.048263,83.4049564 24.0176521,83.1725742 C23.9240488,82.4619877 24.2120143,81.7658089 24.6608418,81.6176215 C27.3926903,80.71562 30.1097874,79.9818117 32.8128206,79.4167385 L34.2928541,79.1171808 C34.9981013,78.969646 35.6902371,79.3864877 35.8999128,80.0607556 L35.940028,80.2235729 L35.9457728,80.2571746 C36.0812941,81.1130699 35.521335,81.9247169 34.6730854,82.1019041 L34.4319429,82.1510004 C32.3484683,82.5533884 30.2547546,83.0611934 28.1500816,83.6742773 C27.9536907,83.7322402 27.8414726,83.9384347 27.8994355,84.1348257 C27.9078395,84.1633002 27.9196332,84.1906623 27.9345632,84.216324 L30.0676955,87.8827553 C30.4294173,88.5044832 30.4294157,89.2725653 30.0676912,89.8942918 L27.9346929,93.5604571 C27.8314962,93.73783 27.8916279,93.9652766 28.0690008,94.0684733 L28.108512,94.0884118 L28.1501136,94.1035111 C44.4581399,98.8539804 60.1082047,97.2835987 75.4354014,89.3280851 L76.0642009,88.9960782 C76.12394,88.9645359 76.146798,88.8905377 76.1152557,88.8307987 L76.0939428,88.8017816 L76.0651053,88.7802263 C65.9483563,83.4106214 55.6927842,80.8263943 45.2018541,81.0090313 L44.3465886,81.0301387 C43.5853499,81.0552109 42.9323528,80.5124083 42.8056437,79.7758288 L42.7881552,79.6355406 C42.7241934,78.8163698 43.3364114,78.1004493 44.1555823,78.0364876 L44.4837057,78.0246371 C56.1231181,77.6985205 67.5130304,80.6091988 78.7108016,86.8018735 Z M38.4470298,88 C38.8370808,88 39.1915352,88.2267914 39.3549892,88.5809418 C39.5864286,89.0823939 39.3675401,89.6765199 38.866088,89.9079594 L38.866088,89.9079594 L32.7779029,92.717891 C32.4883779,92.8515179 32.152483,92.8390554 31.8736561,92.6843411 C31.3907331,92.4163788 31.216473,91.807666 31.4844352,91.3247429 L31.4844352,91.3247429 L33.0435981,88.5148114 C33.2198929,88.1970919 33.5546544,88 33.9180076,88 L33.9180076,88 Z M40.7860018,79.6360237 L40.7936888,79.7413946 L40.7979866,79.8646012 C40.8251092,80.6421216 40.2489731,81.3094123 39.4758098,81.395969 C38.7091589,81.4817967 38.0105851,80.9494775 37.8899474,80.1875283 L37.8709408,80.0674824 C37.74722,79.2860603 38.2803923,78.552297 39.0618144,78.4285761 L39.2484429,78.406276 C40.0126135,78.3212763 40.7010021,78.8718531 40.7860018,79.6360237 Z" id="logo"></path>
        </g>
    </g>
</svg>