<?xml version="1.0" encoding="UTF-8"?>
<svg width="237px" height="35px" viewBox="0 0 237 35" version="1.1" xmlns="http://www.w3.org/2000/svg" xmlns:xlink="http://www.w3.org/1999/xlink">
    <title>parallax0</title>
    <g id="Page-1" stroke="none" stroke-width="1" fill="none" fill-rule="evenodd">
        <g id="Welcome" transform="translate(-42.000000, -202.000000)" fill="#A7FFEF">
            <path d="M254.432553,215.030311 C258.00441,214.747622 261.711816,216.494503 262.949168,218.093235 C264.397874,219.96505 264.924379,222.026758 264.528681,224.278361 C267.612795,221.927983 270.086291,220.988337 271.949168,221.459423 C276.20038,222.534474 278.540223,225.739961 278.540223,229.928527 C278.540223,232.271397 276.343204,234.58361 271.949168,236.865165 L271.949168,236.865165 L228.489369,236.865165 C226.82979,235.648682 226,234.419869 226,233.178724 C226,231.317007 227.219941,229.504764 228.489369,228.365165 C229.758798,227.225567 231.178111,226.365165 233.589798,226.365165 C235.197589,226.365165 237.305906,227.552953 239.91475,229.928527 C239.674243,226.960307 239.910553,224.793722 240.623678,223.42877 C242.590805,219.663612 249.178741,215.446115 254.432553,215.030311 Z M52.693577,202.016635 C54.6650927,201.86149 56.711425,202.82021 57.3943914,203.697623 C58.1940168,204.724909 58.4846252,205.856413 58.2662165,207.092133 C59.9685184,205.802203 61.3337842,205.286508 62.3620141,205.545049 C64.708505,206.135056 66,207.894286 66,210.193047 C66,211.478856 64.787338,212.747841 62.3620141,214 L62.3620141,214 L45.0716573,214 C40.4785662,212.356723 43.8185194,207.247207 44.746551,206.1866 C46.3511315,204.352796 49.793693,202.244836 52.693577,202.016635 Z" id="parallax0"></path>
        </g>
    </g>
</svg>