<?xml version="1.0" encoding="UTF-8"?>
<svg width="25px" height="9px" viewBox="0 0 25 9" version="1.1" xmlns="http://www.w3.org/2000/svg" xmlns:xlink="http://www.w3.org/1999/xlink">
    <title>Group</title>
    <g id="Page-1" stroke="none" stroke-width="1" fill="none" fill-rule="evenodd">
        <g id="Welcome" transform="translate(-249.000000, -307.000000)" fill="#FFFFFF" fill-rule="nonzero">
            <g id="Group" transform="translate(249.000000, 307.000000)">
                <path d="M14.2344803,2 L19.474665,3.4432155 L24,9 L1.06874733,9 C0.552109831,9 2.94737774,7.37810676 8.25455105,4.13432027 L14.2344803,2 Z" id="Path"></path>
                <path d="M10.8316149,0.0893134231 L15.9984727,0 L22.0646319,2.52608438 L24.6824839,6.28755438 C25.1881426,7.01411188 25.078,8.06735287 24.4364735,8.64003398 C23.8350424,9.17692252 22.9800901,9.10084201 22.4589204,8.4905698 L22.359311,8.36141614 L20.2576469,5.34230689 L15.4902044,3.35789507 L12.5291641,3.4092642 L10.048995,8.12987113 L6.17618949,6.90236502 L2.05325838,8.86835508 C1.34467755,9.20616744 0.534789491,8.8714944 0.177742458,8.12008756 L0.11623816,7.97437762 C-0.182039104,7.17187808 0.113466242,6.25464358 0.776933895,5.85027182 L0.905591006,5.78061545 L5.98031554,3.36126593 L8.66492267,4.21218603 L10.8316149,0.0893134231 Z" id="Path"></path>
            </g>
        </g>
    </g>
</svg>