<?xml version="1.0" encoding="UTF-8"?>
<svg width="96px" height="73px" viewBox="0 0 96 73" version="1.1" xmlns="http://www.w3.org/2000/svg" xmlns:xlink="http://www.w3.org/1999/xlink">
    <title>van</title>
    <g id="Page-1" stroke="none" stroke-width="1" fill="none" fill-rule="evenodd">
        <g id="Welcome" transform="translate(-54.000000, -234.000000)">
            <g id="van" transform="translate(54.000000, 234.465649)">
                <polygon id="Rectangle" fill="#84B1FF" points="71 30.5343506 88 30.5343506 92 48.5343506 71 48.5343506"></polygon>
                <path d="M85,17.0343506 C87.6233526,17.0343506 89.9983526,18.0976743 91.7175144,19.8168362 C93.4366763,21.535998 94.5,23.910998 94.5,26.5343506 L94.5,26.5343506 L94.5,30.0343506 L70.5,30.0343506 L70.5,49.4775534 L90,49.4775534 C91.2426407,49.4775534 92.3676407,49.981233 93.1819805,50.7955729 C93.9963203,51.6099127 94.5,52.7349127 94.5,53.9775534 L94.5,53.9775534 L94.5,70.0343506 L21,70.0343506 C15.6152237,70.0343506 10.7402237,67.8517387 7.21141777,64.3229328 C3.68261184,60.7941269 1.5,55.9191269 1.5,50.5343506 L1.5,50.5343506 L1.5,22.5343506 C1.5,21.0155675 2.11560847,19.6405675 3.1109127,18.6452633 C4.10621694,17.6499591 5.48121694,17.0343506 7,17.0343506 L7,17.0343506 Z" id="Rectangle" stroke="#FFFFFF" stroke-width="3" fill="#007CFF"></path>
                <rect id="Rectangle" stroke="#FFFFFF" stroke-width="2" fill="#84B1FF" x="13" y="30.5343506" width="18" height="13" rx="2"></rect>
                <rect id="Rectangle-Copy" stroke="#FFFFFF" stroke-width="2" fill="#015FFF" x="44" y="30.5343506" width="16" height="33"></rect>
                <rect id="Rectangle" fill="#FFFFFF" x="46" y="47.5343506" width="4" height="2"></rect>
                <path d="M8,10.5248396 C53.4781682,10.5248396 77.3836792,10.5248396 79.7165329,10.5248396 C82.0493865,10.5248396 84.1438756,10.858173 86,11.5248396" id="Path-3" stroke="#FFFFFF" stroke-width="3" stroke-linecap="round"></path>
                <path d="M14.4158728,10.5248396 L14.4158728,2.79379324 C14.4158728,2.24150849 14.8635881,1.79379324 15.4158728,1.79379324 C15.7152018,1.79379324 15.9987905,1.92788057 16.1887364,2.15922102 L23.0574637,10.5248396 L23.0574637,10.5248396 L14.4158728,10.5248396 Z" id="Path-4" fill="#FFFFFF"></path>
            </g>
        </g>
    </g>
</svg>