<?xml version="1.0" encoding="UTF-8"?>
<svg width="55px" height="67px" viewBox="0 0 55 67" version="1.1" xmlns="http://www.w3.org/2000/svg" xmlns:xlink="http://www.w3.org/1999/xlink">
    <title>parallax1</title>
    <g id="Page-1" stroke="none" stroke-width="1" fill="none" fill-rule="evenodd">
        <g id="Welcome" transform="translate(-288.000000, -248.000000)" fill-rule="nonzero">
            <g id="parallax1" transform="translate(288.000000, 248.000000)">
                <path d="M27.0871496,0 L27.8113661,0.00458071693 C28.1802066,0.00932662541 28.558873,0.0180036462 28.9461407,0.0317268223 L29.7317815,0.0662317646 C34.1118904,0.2966483 39.0941395,1.37706842 44.0678253,4.34319828 C47.7451,6.53619452 51.1194499,11.2214832 54.1908749,18.3990642 L51.9199966,21.4326358 C43.2599294,18.8735954 37.9927165,17.2452192 36.1183578,16.5475073 C33.3068198,15.5009393 31.9948812,13.8108538 31.4734031,13.8215883 L31.0986438,13.8352645 L30.6072888,13.8699138 L29.9544398,13.9349783 C29.9326614,13.9367658 29.9135508,13.9380633 29.8972344,13.9387778 C30.3713855,16.6129031 29.4738768,18.9634857 28.5640654,20.6042117 L28.3545093,20.970064 L28.0474771,21.4692807 L27.8530708,21.7675122 L27.0504461,23 L19.2089306,28.5951031 L16.1092647,27.4664431 C14.7686294,22.1449103 14.0906022,19.2645253 14.0751829,18.8252881 C13.7109468,18.9814332 9.7714427,19.8497553 2.25667047,21.4302547 L0,18.344298 C4.64410915,10.6985423 8.04371731,6.15215344 10.1988245,4.70513147 C15.8109011,0.938168926 22.3512199,0 27.0871496,0 Z" id="Path" fill="#0050D9"></path>
                <path d="M38.0780754,66.0226537 C31.4813312,66.0226537 26.2658283,66.0226537 21.0283983,66.0226537 C29.1916756,51.3531335 31.1990249,37.0122489 27.0504461,23 C26.9631874,22.7052747 30.7636056,18.8249531 29.8972344,13.9387778 C30.2235634,13.9244869 30.4994222,13.6770331 32.0504461,13.9387778 C34.140101,16 37.0954273,25.3480975 39.7005417,35 C43.8959672,50.5439774 43.3551452,60.884862 38.0780754,66.0226537 Z" id="Path" fill="#0049C7" opacity="0.5"></path>
            </g>
        </g>
    </g>
</svg>